<svg width="1000" height="785" viewBox="0 0 1000 785" fill="none" xmlns="http://www.w3.org/2000/svg">
<path d="M161.961 642C167.559 642 172.179 643.962 176.097 647.882C180.016 651.802 181.977 656.56 181.977 662.022V731.466H111.016C105.417 731.466 100.798 729.507 96.8764 725.587C92.9641 721.667 91 716.906 91 711.44V678.4H165.32V662.016C165.338 661.572 165.26 661.13 165.091 660.72C164.922 660.309 164.667 659.94 164.341 659.638C164.039 659.313 163.67 659.056 163.259 658.887C162.848 658.718 162.405 658.64 161.961 658.659H91V642H161.961ZM165.32 714.806V695.062H107.657V711.446C107.638 711.89 107.717 712.332 107.885 712.743C108.054 713.153 108.31 713.522 108.636 713.824C108.938 714.15 109.307 714.407 109.718 714.577C110.129 714.746 110.571 714.825 111.016 714.806H165.32ZM325.857 642H343.634L310.042 731.466H296.466L266.374 664.963L237.961 731.466L237.679 731.328L237.82 731.466H224.385L189.254 642H206.89L231.103 701.363L256.854 642H275.89L303.183 701.363L325.857 642ZM419.912 642C425.51 642 430.129 643.962 434.051 647.882C437.966 651.802 439.927 656.56 439.927 662.022V695.062H365.607V711.446C365.589 711.89 365.667 712.332 365.836 712.743C366.005 713.153 366.261 713.522 366.586 713.824C366.888 714.15 367.257 714.407 367.668 714.577C368.079 714.746 368.522 714.825 368.966 714.806H439.927V731.466H368.966C363.368 731.466 358.748 729.507 354.827 725.587C350.911 721.667 348.95 716.906 348.95 711.443V662.022C348.95 656.422 350.911 651.802 354.83 647.878C358.748 643.965 363.505 642 368.966 642H419.912ZM365.607 678.403H423.27V662.019C423.289 661.576 423.211 661.133 423.042 660.723C422.873 660.313 422.617 659.944 422.292 659.642C421.989 659.316 421.62 659.06 421.209 658.891C420.798 658.722 420.355 658.644 419.912 658.662H368.966C368.522 658.644 368.079 658.722 367.668 658.891C367.257 659.06 366.888 659.316 366.586 659.642C366.26 659.944 366.004 660.313 365.835 660.724C365.666 661.136 365.588 661.578 365.607 662.022V678.403ZM546.156 662.16V665.52H529.503V662.16C529.521 661.716 529.443 661.274 529.274 660.864C529.105 660.453 528.849 660.084 528.524 659.782C528.222 659.456 527.853 659.199 527.442 659.03C527.031 658.86 526.588 658.782 526.144 658.8H475.198C474.754 658.782 474.311 658.86 473.9 659.03C473.489 659.199 473.12 659.456 472.818 659.782C472.493 660.084 472.236 660.453 472.066 660.863C471.897 661.274 471.818 661.716 471.836 662.16V675.184C471.818 675.628 471.897 676.07 472.066 676.481C472.236 676.891 472.493 677.26 472.818 677.562C473.12 677.888 473.489 678.145 473.9 678.314C474.311 678.484 474.754 678.562 475.198 678.544H526.144C531.742 678.544 536.361 680.502 540.28 684.422C544.199 688.342 546.156 693.104 546.156 698.566V711.584C546.156 717.184 544.199 721.805 540.28 725.728C536.361 729.648 531.601 731.606 526.141 731.606H475.198C469.6 731.606 464.981 729.648 461.059 725.725C457.14 721.805 455.183 717.046 455.183 711.584V708.224H471.836V711.584C471.818 712.028 471.896 712.471 472.066 712.882C472.235 713.293 472.492 713.663 472.818 713.965C473.121 714.291 473.49 714.547 473.901 714.716C474.312 714.885 474.754 714.963 475.198 714.944H526.144C526.588 714.963 527.031 714.885 527.442 714.716C527.852 714.547 528.222 714.291 528.524 713.965C528.85 713.662 529.106 713.293 529.275 712.882C529.444 712.471 529.522 712.028 529.503 711.584V698.563C529.522 698.119 529.444 697.676 529.275 697.265C529.106 696.854 528.85 696.485 528.524 696.182C528.222 695.857 527.852 695.6 527.442 695.431C527.031 695.262 526.588 695.185 526.144 695.203H475.198C469.6 695.203 464.981 693.245 461.059 689.325C457.14 685.402 455.183 680.643 455.183 675.181V662.16C455.183 656.56 457.14 651.939 461.059 648.019C464.981 644.099 469.738 642.141 475.198 642.141H526.144C531.742 642.141 536.361 644.099 540.28 648.019C544.199 651.802 546.156 656.56 546.156 662.16ZM581.428 642H632.373C637.971 642 642.591 643.962 646.513 647.882C650.431 651.802 652.389 656.56 652.389 662.022V711.446C652.389 717.046 650.431 721.667 646.509 725.587C642.591 729.507 637.834 731.466 632.373 731.466H581.428C575.83 731.466 571.21 729.507 567.292 725.587C563.373 721.667 561.415 716.906 561.415 711.443V662.022C561.415 656.422 563.373 651.802 567.292 647.878C571.21 643.962 575.967 642 581.428 642ZM632.373 658.662H581.428C580.984 658.644 580.541 658.722 580.13 658.891C579.719 659.06 579.35 659.316 579.048 659.642C578.722 659.944 578.466 660.313 578.297 660.724C578.128 661.136 578.05 661.578 578.069 662.022V711.446C578.05 711.89 578.129 712.332 578.298 712.743C578.466 713.153 578.722 713.522 579.048 713.824C579.35 714.15 579.719 714.407 580.13 714.577C580.541 714.746 580.983 714.825 581.428 714.806H632.373C632.818 714.825 633.26 714.746 633.671 714.577C634.082 714.407 634.451 714.15 634.753 713.824C635.079 713.522 635.334 713.153 635.503 712.743C635.672 712.332 635.75 711.89 635.732 711.446V662.022C635.751 661.578 635.673 661.136 635.504 660.724C635.335 660.313 635.079 659.944 634.753 659.642C634.053 659.082 633.355 658.662 632.373 658.662ZM782.834 642C788.432 642 793.051 643.962 796.973 647.882C800.889 651.802 802.85 656.56 802.85 662.022V731.466H786.334V662.022C786.352 661.578 786.274 661.136 786.105 660.724C785.936 660.313 785.68 659.944 785.355 659.642C784.651 658.941 783.813 658.662 782.834 658.662H747.563C747.119 658.644 746.676 658.722 746.265 658.891C745.854 659.06 745.485 659.316 745.183 659.642C744.857 659.944 744.601 660.313 744.432 660.724C744.263 661.136 744.185 661.578 744.204 662.022V731.466H727.55V662.022C727.569 661.578 727.49 661.135 727.321 660.724C727.151 660.313 726.895 659.944 726.568 659.642C726.266 659.316 725.897 659.06 725.486 658.891C725.075 658.722 724.632 658.644 724.188 658.662H688.776C688.333 658.644 687.891 658.722 687.481 658.891C687.07 659.06 686.702 659.316 686.4 659.642C686.074 659.944 685.818 660.313 685.649 660.724C685.48 661.136 685.402 661.578 685.421 662.022V731.466H668.764V642H782.834ZM889.905 642C895.503 642 900.122 643.962 904.044 647.882C907.959 651.802 909.92 656.56 909.92 662.022V695.062H835.6V711.446C835.582 711.89 835.66 712.332 835.829 712.743C835.998 713.153 836.254 713.522 836.579 713.824C836.881 714.15 837.25 714.407 837.661 714.577C838.072 714.746 838.515 714.825 838.959 714.806H909.92V731.466H838.959C833.361 731.466 828.741 729.507 824.823 725.587C820.904 721.667 818.943 716.906 818.943 711.443V662.022C818.943 656.422 820.904 651.802 824.823 647.878C828.741 643.962 833.501 642 838.962 642H889.905ZM835.6 678.403H893.263V662.019C893.282 661.576 893.204 661.133 893.035 660.723C892.866 660.313 892.61 659.944 892.285 659.642C891.982 659.316 891.613 659.06 891.202 658.891C890.791 658.722 890.348 658.644 889.905 658.662H838.959C838.515 658.644 838.072 658.722 837.661 658.891C837.25 659.06 836.881 659.316 836.579 659.642C836.253 659.944 835.997 660.313 835.828 660.724C835.659 661.136 835.581 661.578 835.6 662.022V678.403Z" fill="#494368"/>
<path d="M499.503 578.906C495.656 578.91 491.846 578.155 488.293 576.683C484.739 575.211 481.511 573.051 478.794 570.327L342.136 433.677C336.668 428.181 333.602 420.741 333.613 412.987C333.623 405.234 336.708 397.802 342.19 392.32C347.673 386.84 355.105 383.756 362.857 383.746C370.609 383.735 378.049 386.798 383.546 392.263L499.503 508.207L752.108 255.604C757.6 250.113 765.048 247.028 772.814 247.028C780.58 247.028 788.028 250.113 793.52 255.605C799.011 261.097 802.096 268.545 802.095 276.312C802.095 284.078 799.01 291.526 793.518 297.018L520.204 570.327C517.49 573.051 514.263 575.211 510.71 576.684C507.157 578.156 503.349 578.911 499.503 578.906Z" fill="#729B1B"/>
<path d="M499.385 578.906C503.231 578.91 507.041 578.155 510.595 576.683C514.149 575.211 517.377 573.051 520.093 570.327L656.751 433.677C662.219 428.181 665.283 420.741 665.271 412.989C665.259 405.236 662.174 397.804 656.692 392.322C651.211 386.84 643.779 383.754 636.026 383.742C628.274 383.734 620.835 386.798 615.337 392.264L499.385 508.207L246.777 255.604C241.266 250.206 233.848 247.2 226.133 247.24C218.419 247.279 211.032 250.362 205.577 255.817C200.122 261.272 197.04 268.659 197 276.373C196.961 284.088 199.966 291.506 205.365 297.018L478.681 570.327C481.396 573.051 484.623 575.211 488.175 576.683C491.728 578.155 495.539 578.911 499.385 578.906Z" fill="#729B1B" fill-opacity="0.5"/>
<path d="M801.944 361.88L652.713 225.1L631.72 247.963L756.079 361.882H265.906L390.265 247.863L369.275 225L220.044 361.88H219.944V452.042C219.944 492.799 259.24 526 307.494 526H399.518C447.77 526 487.068 492.799 487.068 452.042V392.796H534.822V452.04C534.822 492.797 574.118 525.998 622.37 525.998H714.396C762.647 525.998 801.944 492.797 801.944 452.04V361.884V361.88Z" fill="url(#paint0_linear_0_1)"/>
<path d="M650.959 194.337L506.332 403.456C504.795 405.676 502.578 407.337 500.016 408.187C497.45 409.038 494.678 409.034 492.116 408.175C489.56 407.317 487.353 405.65 485.829 403.425C484.31 401.203 483.561 398.544 483.696 395.856L489.485 280.402L396.038 260.583C394.043 260.161 392.183 259.253 390.622 257.941C389.064 256.633 387.855 254.96 387.1 253.071C386.346 251.182 386.07 249.136 386.297 247.115C386.527 245.092 387.254 243.158 388.412 241.484L533.044 32.3645C534.583 30.1451 536.802 28.4853 539.365 27.6347C541.929 26.7841 544.699 26.7886 547.26 27.6475C549.817 28.5047 552.024 30.1724 553.546 32.3976C555.066 34.6238 555.815 37.2801 555.68 39.9671L549.891 155.424L643.336 175.242C645.331 175.664 647.192 176.571 648.754 177.882C650.313 179.189 651.524 180.862 652.278 182.752C653.033 184.641 653.307 186.688 653.077 188.71C652.847 190.732 652.119 192.664 650.959 194.337Z" fill="#FCC72B"/>
<defs>
<linearGradient id="paint0_linear_0_1" x1="220" y1="225" x2="793.5" y2="513.5" gradientUnits="userSpaceOnUse">
<stop stop-color="#EDD532" stop-opacity="0.3"/>
<stop offset="1" stop-color="#86B91A"/>
</linearGradient>
</defs>
</svg>
